<svg width="314" height="183" viewBox="0 0 314 183" fill="none" xmlns="http://www.w3.org/2000/svg">
<path d="M312.757 77.793C305.049 28.2142 260.335 -5.26823 210.593 0.91642C163.381 6.78625 125.796 48.0985 132.021 103.354C132.498 107.599 133.361 111.925 135.697 116.343C138.896 113.083 141.09 109.904 143.273 106.695C154.84 89.6545 165.249 71.8013 178.035 55.6237C192.08 37.8618 211.01 31.1085 233.006 35.3535C261.726 40.9085 279.437 63.5551 279.173 92.7925C278.797 133.627 239.953 154.192 209.73 147.683C200.022 145.591 191.877 140.706 184.25 134.765C181.376 132.521 179.802 132.317 177.649 135.679C173.374 142.361 168.834 148.891 164 155.177C161.553 158.366 162.142 160.113 165.016 162.449C185.408 179.012 208.694 185.319 234.57 181.998C285.256 175.488 320.597 128.265 312.757 77.793Z" fill="white"/>
<path d="M178.207 65.9313C176.897 67.5562 176.095 68.4093 175.455 69.3639C162.71 88.0905 150.331 107.061 137.169 125.483C123.46 144.666 104.195 152.192 81.2333 147.723C47.7509 141.213 29.2071 112.89 35.3816 79.3365C41.0382 48.6062 73.9722 27.6353 104.256 35.3026C113.995 37.7704 122.221 42.9699 130.162 48.7484C132.64 50.556 133.93 50.3631 135.636 47.6922C139.81 41.142 144.136 34.6527 148.828 28.468C151.346 25.1472 150.971 23.2075 147.914 20.6077C127.867 3.61768 104.662 -2.72945 78.9788 1.05852C27.4604 8.65477 -5.83926 53.3285 0.853163 105.091C6.11367 145.753 42.0943 179.631 83.3355 182.729C124.242 185.806 161.705 162.469 176.684 124.213C184.067 105.365 184.93 86.1406 178.218 65.9313H178.207Z" fill="white"/>
<path d="M223.328 106.718C231.859 106.677 238.399 100.178 238.47 91.6575C238.541 82.8832 231.919 76.2213 223.155 76.2619C214.422 76.3025 207.871 83.0356 208.014 91.8302C208.146 100.31 214.777 106.759 223.328 106.718Z" fill="white"/>
<path d="M90.2516 76.2617C81.8429 76.2617 75.12 82.8526 75.0083 91.2207C74.8966 99.8629 81.6195 106.708 90.2211 106.718C98.6298 106.718 105.353 100.117 105.464 91.7589C105.576 83.1166 98.8533 76.2719 90.2516 76.2617Z" fill="white"/>
</svg>
