<svg width="157" height="44" viewBox="0 0 157 44" fill="none" xmlns="http://www.w3.org/2000/svg">
<path d="M72.2625 18.8614C70.4816 7.40622 60.1503 -0.329903 48.6576 1.09906C37.7491 2.45529 29.0651 12.0005 30.5034 24.7673C30.6137 25.7481 30.8131 26.7477 31.3528 27.7684C32.0919 27.0152 32.5988 26.2808 33.1032 25.5393C35.7758 21.602 38.1809 17.477 41.135 13.7392C44.3801 9.63531 48.7538 8.07495 53.8361 9.05575C60.4718 10.3392 64.5639 15.5717 64.5029 22.3271C64.4161 31.762 55.4411 36.5135 48.4582 35.0094C46.215 34.526 44.3332 33.3974 42.571 32.0248C41.907 31.5062 41.5433 31.4593 41.0458 32.236C40.058 33.7799 39.0092 35.2886 37.8923 36.7411C37.3268 37.4778 37.4629 37.8814 38.1269 38.4211C42.8385 42.2481 48.2188 43.7052 54.1975 42.9379C65.9084 41.4339 74.0739 30.5231 72.2625 18.8614Z" fill="white"/>
<path d="M41.1749 16.1208C40.8722 16.4962 40.6868 16.6933 40.539 16.9139C37.5942 21.2407 34.734 25.6237 31.693 29.8801C28.5254 34.3125 24.0742 36.0512 18.769 35.0188C11.0329 33.5147 6.74831 26.9706 8.17492 19.218C9.48188 12.1178 17.0913 7.27246 24.0883 9.044C26.3385 9.61418 28.2391 10.8155 30.074 12.1507C30.6465 12.5683 30.9445 12.5237 31.3387 11.9066C32.3031 10.3932 33.3026 8.89383 34.3867 7.46487C34.9686 6.69759 34.8818 6.24942 34.1755 5.64874C29.5437 1.7232 24.1821 0.256688 18.2481 1.1319C6.34472 2.88702 -1.34916 13.2089 0.197123 25.1685C1.41256 34.5636 9.7259 42.3912 19.2547 43.1069C28.706 43.8178 37.3619 38.4258 40.8229 29.5868C42.5287 25.2319 42.7282 20.7901 41.1772 16.1208H41.1749Z" fill="white"/>
<path d="M51.5999 25.544C53.5709 25.5346 55.082 24.0329 55.0985 22.0642C55.1149 20.0369 53.585 18.4977 51.5601 18.5071C49.5421 18.5164 48.0287 20.0721 48.0616 22.1041C48.0921 24.0634 49.6243 25.5533 51.5999 25.544Z" fill="white"/>
<path d="M20.8525 18.5071C18.9097 18.5071 17.3564 20.0299 17.3306 21.9633C17.3048 23.9601 18.8581 25.5416 20.8455 25.544C22.7883 25.544 24.3417 24.0188 24.3675 22.0877C24.3933 20.0909 22.84 18.5094 20.8525 18.5071Z" fill="white"/>
<path d="M88.9411 7.62817C92.1085 7.62817 94.6842 10.2039 94.6842 13.3713C94.6842 16.5387 92.1085 19.097 88.9411 19.097H84.8861V9.26409H86.1566V17.8266H88.9411C91.395 17.8266 93.3964 15.8252 93.3964 13.3713C93.3964 10.9 91.395 8.89862 88.9411 8.89862H84.8861V7.62817H88.9411ZM102.088 16.5561C102.088 16.5561 103.428 16.5561 103.41 16.5561C102.784 18.0528 101.304 19.097 99.5815 19.097C98.3981 19.097 97.3191 18.6097 96.5533 17.8092C96.3793 17.6177 96.2401 17.4263 96.1008 17.2349C95.9616 17.026 95.8572 16.8172 95.7528 16.5909C95.5439 16.0862 95.4221 15.5119 95.4221 14.9376C95.4221 12.6229 97.2843 10.7608 99.5815 10.7608C100.782 10.7608 101.844 11.2655 102.61 12.066C102.784 12.2401 102.923 12.4315 103.062 12.6404C103.167 12.797 103.271 12.971 103.358 13.1451L97.4583 17.0434L97.6149 17.1826C98.6243 18.0702 100.121 18.1572 101.235 17.4263C101.566 17.2 101.861 16.9042 102.088 16.5561ZM96.7448 15.8426L96.8144 16.0514L101.705 12.8318L101.548 12.6752C101.026 12.2227 100.33 11.9442 99.5815 11.9442C97.9282 11.9442 96.6055 13.2843 96.6055 14.9376C96.6055 15.2509 96.6404 15.5641 96.7448 15.8426ZM108.3 17.931C109.362 17.931 110.267 17.3915 110.806 16.5735L111.885 17.0956C111.154 18.3139 109.814 19.1144 108.3 19.1144C106.003 19.1144 104.141 17.2523 104.141 14.955C104.141 12.6404 106.003 10.7782 108.3 10.7782C109.814 10.7782 111.154 11.5961 111.885 12.797L110.806 13.3191C110.267 12.5011 109.362 11.9616 108.3 11.9616C106.664 11.9616 105.307 13.3017 105.307 14.955C105.307 16.5909 106.664 17.931 108.3 17.931ZM116.764 10.7608C119.061 10.7608 120.941 12.6404 120.941 14.9376C120.941 17.2349 119.061 19.097 116.764 19.097C114.467 19.097 112.605 17.2349 112.605 14.9376C112.605 12.6229 114.467 10.7608 116.764 10.7608ZM116.764 17.9136C118.417 17.9136 119.757 16.5735 119.757 14.9376C119.757 13.2843 118.417 11.9442 116.764 11.9442C115.128 11.9442 113.771 13.2843 113.771 14.9376C113.771 16.5735 115.128 17.9136 116.764 17.9136ZM125.717 10.7608C125.769 10.7608 125.821 10.7608 125.874 10.7608C125.943 10.7608 125.995 10.7608 126.048 10.7608C126.082 10.7608 126.117 10.7608 126.152 10.7608C127.214 10.8304 128.119 11.2481 128.867 12.0138V7.62817H130.137C130.137 12.5011 130.137 15.0246 130.137 15.1638C130.137 15.7208 129.929 16.3299 129.476 17.0434C129.302 17.3219 129.093 17.6003 128.867 17.844C128.119 18.6097 127.214 19.0274 126.152 19.097C126.117 19.097 126.082 19.097 126.048 19.097C125.995 19.097 125.943 19.1144 125.874 19.1144C125.821 19.1144 125.769 19.097 125.717 19.097C124.603 19.0622 123.663 18.6271 122.88 17.8266C122.097 17.026 121.714 16.0514 121.714 14.9376C121.714 13.8064 122.097 12.8492 122.88 12.0312C123.663 11.2307 124.603 10.813 125.717 10.7608ZM125.769 17.9136C125.804 17.9136 125.839 17.9136 125.874 17.9136C125.926 17.9136 125.961 17.9136 125.995 17.9136C126.587 17.8962 127.109 17.7221 127.597 17.3741C128.066 17.0434 128.414 16.6083 128.641 16.0862C128.78 15.7556 128.85 15.4249 128.867 15.0768V14.781C128.832 14.0152 128.536 13.3539 127.979 12.8144C127.422 12.2749 126.761 11.979 125.995 11.9442C125.961 11.9442 125.926 11.9442 125.874 11.9442C125.839 11.9442 125.804 11.9442 125.769 11.9442C124.969 11.979 124.29 12.2749 123.733 12.8666C123.176 13.4409 122.898 14.137 122.898 14.9376C122.898 15.7382 123.176 16.4343 123.733 17.0086C124.29 17.5829 124.969 17.8962 125.769 17.9136ZM130.137 17.113V19.097H128.867V18.6619C129.406 18.2442 129.824 17.7221 130.137 17.113ZM137.625 16.5561C137.625 16.5561 138.965 16.5561 138.948 16.5561C138.321 18.0528 136.842 19.097 135.119 19.097C133.936 19.097 132.857 18.6097 132.091 17.8092C131.917 17.6177 131.778 17.4263 131.638 17.2349C131.499 17.026 131.395 16.8172 131.29 16.5909C131.082 16.0862 130.96 15.5119 130.96 14.9376C130.96 12.6229 132.822 10.7608 135.119 10.7608C136.32 10.7608 137.382 11.2655 138.147 12.066C138.321 12.2401 138.461 12.4315 138.6 12.6404C138.704 12.797 138.809 12.971 138.896 13.1451L132.996 17.0434L133.153 17.1826C134.162 18.0702 135.659 18.1572 136.772 17.4263C137.103 17.2 137.399 16.9042 137.625 16.5561ZM132.282 15.8426L132.352 16.0514L137.242 12.8318L137.086 12.6752C136.564 12.2227 135.867 11.9442 135.119 11.9442C133.466 11.9442 132.143 13.2843 132.143 14.9376C132.143 15.2509 132.178 15.5641 132.282 15.8426ZM89.8809 28.7608V29.9616H87.5314L88.8019 28.7608H89.8809ZM89.0803 35.8962H89.8809V37.097H89.0803C87.5662 37.097 86.3132 35.8614 86.3132 34.3473V29.9616H84.8165V28.7608H86.3132V25.6282H87.5314V34.3473C87.5314 35.2 88.2276 35.8962 89.0803 35.8962ZM91.969 25.6282V28.6738C91.8298 28.7608 91.708 28.8478 91.6036 28.9348C91.2381 29.1959 90.9422 29.5265 90.6986 29.9094C90.6812 29.9094 90.6986 25.6282 90.6986 25.6282H91.969ZM97.1204 31.9804V37.097H95.85V31.9804C95.85 30.9014 94.9798 30.0312 93.9008 30.0312C92.8392 30.0312 91.969 30.9014 91.969 31.9804V37.097H90.6986V31.9804C90.6986 30.2053 92.1257 28.7608 93.9008 28.7608C95.676 28.7608 97.1204 30.2053 97.1204 31.9804ZM104.586 34.5561C104.586 34.5561 105.926 34.5561 105.909 34.5561C105.282 36.0528 103.803 37.097 102.08 37.097C100.896 37.097 99.8174 36.6097 99.0517 35.8092C98.8776 35.6177 98.7384 35.4263 98.5992 35.2349C98.46 35.026 98.3555 34.8172 98.2511 34.5909C98.0423 34.0862 97.9205 33.5119 97.9205 32.9376C97.9205 30.6229 99.7826 28.7608 102.08 28.7608C103.281 28.7608 104.342 29.2655 105.108 30.066C105.282 30.2401 105.421 30.4315 105.561 30.6404C105.665 30.797 105.769 30.971 105.856 31.1451L99.9567 35.0434L100.113 35.1826C101.123 36.0702 102.619 36.1572 103.733 35.4263C104.064 35.2 104.36 34.9042 104.586 34.5561ZM99.2431 33.8426L99.3127 34.0514L104.203 30.8318L104.046 30.6752C103.524 30.2227 102.828 29.9442 102.08 29.9442C100.427 29.9442 99.1039 31.2843 99.1039 32.9376C99.1039 33.2509 99.1387 33.5641 99.2431 33.8426ZM113.179 26.8986V30.7274H118.801V31.9978H113.179V37.1144H111.909V25.6282H120.524V26.8986H113.179ZM126.476 37.1144C126.598 37.0448 126.72 36.9578 126.841 36.8708C127.189 36.5923 127.503 36.2617 127.746 35.8962C127.746 35.8788 127.746 37.1144 127.746 37.1144H126.476ZM121.324 33.8948V28.7608H122.595V33.8948C122.595 34.9564 123.465 35.8266 124.527 35.8266C125.606 35.8266 126.476 34.9564 126.476 33.8948V28.7608H127.746V33.8948C127.746 35.6699 126.302 37.097 124.527 37.097C122.752 37.097 121.324 35.6699 121.324 33.8948ZM133.593 28.7608V29.9616H131.244L132.514 28.7608H133.593ZM132.793 35.8962H133.593V37.097H132.793C131.279 37.097 130.026 35.8614 130.026 34.3473V29.9616H128.529V28.7608H130.026V25.6282H131.244V34.3473C131.244 35.2 131.94 35.8962 132.793 35.8962ZM139.562 37.1144C139.684 37.0448 139.806 36.9578 139.928 36.8708C140.276 36.5923 140.589 36.2617 140.833 35.8962C140.833 35.8788 140.833 37.1144 140.833 37.1144H139.562ZM134.411 33.8948V28.7608H135.681V33.8948C135.681 34.9564 136.552 35.8266 137.613 35.8266C138.692 35.8266 139.562 34.9564 139.562 33.8948V28.7608H140.833V33.8948C140.833 35.6699 139.388 37.097 137.613 37.097C135.838 37.097 134.411 35.6699 134.411 33.8948ZM142.869 28.7608V29.1611C142.381 29.5265 141.998 29.9964 141.685 30.5185C141.668 30.5185 141.685 28.7608 141.685 28.7608H142.869ZM146.384 28.7608V29.9442H145.949C144.243 29.9442 142.869 31.3365 142.869 33.042V37.097H141.685V33.0942V33.0768C141.685 30.6926 143.617 28.7608 146.001 28.7608H146.384ZM153.788 34.5561C153.788 34.5561 155.128 34.5561 155.111 34.5561C154.484 36.0528 153.005 37.097 151.282 37.097C150.098 37.097 149.019 36.6097 148.254 35.8092C148.08 35.6177 147.94 35.4263 147.801 35.2349C147.662 35.026 147.558 34.8172 147.453 34.5909C147.244 34.0862 147.122 33.5119 147.122 32.9376C147.122 30.6229 148.985 28.7608 151.282 28.7608C152.483 28.7608 153.544 29.2655 154.31 30.066C154.484 30.2401 154.623 30.4315 154.763 30.6404C154.867 30.797 154.971 30.971 155.058 31.1451L149.159 35.0434L149.315 35.1826C150.325 36.0702 151.821 36.1572 152.935 35.4263C153.266 35.2 153.562 34.9042 153.788 34.5561ZM148.445 33.8426L148.515 34.0514L153.405 30.8318L153.248 30.6752C152.726 30.2227 152.03 29.9442 151.282 29.9442C149.629 29.9442 148.306 31.2843 148.306 32.9376C148.306 33.2509 148.341 33.5641 148.445 33.8426Z" fill="white"/>
</svg>
